<svg width="30" height="30" viewBox="0 0 30 30" fill="none" xmlns="http://www.w3.org/2000/svg">
<path d="M15 2.8125C8.27988 2.8125 2.8125 8.27988 2.8125 15C2.8125 21.7201 8.27988 27.1875 15 27.1875C21.7201 27.1875 27.1875 21.7201 27.1875 15C27.1875 8.27988 21.7201 2.8125 15 2.8125ZM21.3428 10.9154L13.4678 20.2904C13.3814 20.3933 13.2739 20.4764 13.1526 20.5342C13.0313 20.5919 12.899 20.6229 12.7646 20.625H12.7488C12.6174 20.625 12.4875 20.5973 12.3675 20.5438C12.2475 20.4903 12.14 20.4122 12.0521 20.3145L8.67715 16.5645C8.59144 16.4735 8.52476 16.3664 8.48104 16.2494C8.43732 16.1323 8.41744 16.0077 8.42256 15.8829C8.42769 15.758 8.45771 15.6355 8.51088 15.5224C8.56404 15.4093 8.63928 15.308 8.73215 15.2245C8.82503 15.1409 8.93367 15.0767 9.0517 15.0357C9.16973 14.9947 9.29476 14.9777 9.41945 14.9858C9.54414 14.9938 9.66597 15.0266 9.77777 15.0824C9.88958 15.1382 9.98911 15.2158 10.0705 15.3105L12.7242 18.259L19.9072 9.70957C20.0683 9.52329 20.2963 9.40789 20.5418 9.38833C20.7873 9.36877 21.0307 9.4466 21.2193 9.60502C21.4079 9.76343 21.5265 9.9897 21.5497 10.2349C21.5728 10.4801 21.4984 10.7246 21.3428 10.9154Z" fill="#62A941"/>
</svg>
