<svg width="584" height="562" viewBox="0 0 584 562" fill="none" xmlns="http://www.w3.org/2000/svg">
<path d="M325.404 384.278C365.725 369.304 386.774 340.465 386.774 290.831C386.774 241.196 344.949 197.46 292.687 197.375C237.538 197.285 195.936 241.015 196.601 290.831C197.266 340.646 221.023 373.786 259.047 385.769L191.689 551.48C101.536 528.142 9.84509 421.788 9.84509 290.831C9.84509 135.721 134.478 9.98059 290.688 9.98059C446.897 9.98059 573.53 135.721 573.53 290.831C573.53 423.825 482.709 528.695 390.632 551.946L325.404 384.278Z" fill="white" stroke="#252525" stroke-width="19.2122" stroke-linecap="round" stroke-linejoin="round"/>
<path d="M553.324 534.385C554.271 534.705 555.19 535.39 556.079 536.44C556.982 537.489 557.886 538.932 558.79 540.769L563.272 549.689H558.527L554.352 541.315C553.273 539.129 552.223 537.679 551.203 536.964C550.197 536.25 548.82 535.893 547.071 535.893H542.261V549.689H537.845V517.047H547.814C551.546 517.047 554.33 517.827 556.166 519.387C558.003 520.946 558.921 523.3 558.921 526.448C558.921 528.503 558.44 530.209 557.478 531.564C556.531 532.92 555.146 533.86 553.324 534.385ZM542.261 520.676V532.264H547.814C549.942 532.264 551.546 531.776 552.624 530.799C553.717 529.808 554.264 528.358 554.264 526.448C554.264 524.539 553.717 523.103 552.624 522.141C551.546 521.165 549.942 520.676 547.814 520.676H542.261Z" fill="white"/>
<path d="M571.563 533.911C571.564 536.933 570.969 539.927 569.813 542.719C568.657 545.512 566.962 548.05 564.824 550.187C562.687 552.325 560.15 554.02 557.358 555.177C554.565 556.334 551.572 556.929 548.55 556.929C545.527 556.929 542.534 556.334 539.742 555.177C536.949 554.02 534.412 552.325 532.275 550.187C530.138 548.05 528.443 545.512 527.287 542.719C526.13 539.927 525.535 536.933 525.536 533.911C525.535 530.888 526.13 527.895 527.287 525.102C528.443 522.31 530.138 519.772 532.275 517.635C534.412 515.497 536.949 513.801 539.742 512.645C542.534 511.488 545.527 510.892 548.55 510.892C551.572 510.892 554.565 511.488 557.358 512.645C560.15 513.801 562.687 515.497 564.824 517.635C566.962 519.772 568.657 522.31 569.813 525.102C570.969 527.895 571.564 530.888 571.563 533.911Z" stroke="white" stroke-width="3.97291" stroke-linecap="round" stroke-linejoin="round"/>
</svg>
