<svg width="48" height="48" viewBox="0 0 128 128" fill="none" xmlns="http://www.w3.org/2000/svg">
<g clip-path="url(#clip0_1_2)">
<g clip-path="url(#clip1_1_2)">
<path d="M64 0C28.7108 0 0 28.7108 0 64C0 99.2892 28.7108 128 64 128C99.2892 128 128 99.2892 128 64C128 28.7108 99.2892 0 64 0ZM87.0062 66.8615L51.7908 88.1354C51.286 88.4378 50.7099 88.6005 50.1215 88.6068C49.5331 88.613 48.9536 88.4627 48.4425 88.1711C47.9314 87.8796 47.5071 87.4573 47.213 86.9476C46.919 86.4379 46.7658 85.8592 46.7692 85.2708V42.7292C46.7658 42.1408 46.919 41.5621 47.213 41.0524C47.5071 40.5427 47.9314 40.1205 48.4425 39.8289C48.9536 39.5373 49.5331 39.387 50.1215 39.3932C50.7099 39.3995 51.286 39.5622 51.7908 39.8646L87.0062 61.1385C87.497 61.4375 87.9027 61.8578 88.1842 62.359C88.4657 62.8601 88.6136 63.4252 88.6136 64C88.6136 64.5748 88.4657 65.1399 88.1842 65.6411C87.9027 66.1422 87.497 66.5625 87.0062 66.8615Z" fill="#00FFFF" fill-opacity="0.556863"/>
</g>
</g>
<defs>
<clipPath id="clip0_1_2">
<rect width="128" height="128" fill="white"/>
</clipPath>
<clipPath id="clip1_1_2">
<rect width="128" height="128" fill="white"/>
</clipPath>
</defs>
</svg>
