<svg width="64" height="64" viewBox="0 0 64 64" fill="none" xmlns="http://www.w3.org/2000/svg">
<rect width="64" height="64" rx="32" fill="#079697" fill-opacity="0.59"/>
<path d="M42.9798 24.3488L41.421 22.4918C40.0993 21.0702 38.509 19.9389 36.7469 19.1667C34.9847 18.3945 33.0875 17.9976 31.1708 18C23.3473 18 17 24.5 17 32.5116C17 40.5233 23.3473 47.0233 31.1708 47.0233C34.1016 47.0231 36.9604 46.0927 39.3537 44.3602C41.7469 42.6277 43.557 40.1782 44.5349 37.3488" stroke="#1E1E1E" stroke-width="2" stroke-miterlimit="10" stroke-linecap="round"/>
<path d="M45.8372 21.0726V26.8616C45.8372 27.0837 45.7426 27.2968 45.5743 27.4539C45.406 27.611 45.1777 27.6992 44.9397 27.6992H38.7368C37.9369 27.6992 37.5364 26.7972 38.1018 26.2695L44.3052 20.48C44.8707 19.9513 45.8372 20.3261 45.8372 21.0726Z" fill="#1E1E1E"/>
</svg>
