<svg width="30" height="30" viewBox="0 0 60 60" fill="none" xmlns="http://www.w3.org/2000/svg">
<path d="M54.375 29.2886C54.3592 28.9962 54.2404 28.7188 54.0396 28.5056C53.8389 28.2924 53.5691 28.1571 53.2781 28.1238L50.2735 27.6375C50.1383 27.6153 50.0139 27.55 49.9189 27.4514C49.8239 27.3528 49.7633 27.2261 49.7461 27.0902C49.6887 26.7211 49.6289 26.3379 49.5469 25.9746C49.5205 25.8424 49.536 25.7054 49.5912 25.5824C49.6465 25.4595 49.7387 25.357 49.8551 25.289L52.5246 23.8066C52.7897 23.6715 52.9959 23.4436 53.1039 23.1664C53.2119 22.8892 53.2143 22.582 53.1106 22.3031L52.6477 21.0258C52.5462 20.7459 52.345 20.5134 52.0827 20.3727C51.8205 20.2319 51.5155 20.1928 51.2262 20.2629L48.2321 20.8488C48.0982 20.8727 47.9602 20.8538 47.8377 20.7946C47.7152 20.7355 47.6145 20.6392 47.55 20.5195C47.3754 20.1925 47.1856 19.8597 46.9875 19.5328C46.9156 19.4163 46.8819 19.2802 46.8911 19.1437C46.9004 19.0071 46.9521 18.8768 47.0391 18.7711L49.0313 16.4695C49.2336 16.2522 49.3499 15.9687 49.3583 15.6719C49.3667 15.3751 49.2667 15.0854 49.077 14.857L48.2074 13.8129C48.0183 13.5837 47.7508 13.4328 47.4568 13.3896C47.1628 13.3463 46.8632 13.4136 46.616 13.5785L43.9946 15.1523C43.8783 15.222 43.7428 15.2524 43.6079 15.2391C43.4731 15.2258 43.3461 15.1695 43.2457 15.0785C42.9563 14.8242 42.6598 14.5793 42.3821 14.3531C42.2755 14.269 42.1984 14.1531 42.1622 14.0222C42.126 13.8913 42.1324 13.7523 42.1805 13.6254L43.2656 10.766C43.3838 10.4932 43.3977 10.1864 43.3046 9.90406C43.2114 9.62169 43.0179 9.38336 42.7606 9.23435L41.5781 8.54411C41.3207 8.39564 41.0175 8.34739 40.7267 8.40858C40.4358 8.46978 40.1778 8.63612 40.002 8.87575L38.086 11.2828C38.017 11.3874 37.9138 11.4648 37.7941 11.5015C37.6743 11.5383 37.5455 11.5322 37.4297 11.4843C37.3582 11.455 36.7535 11.2078 36.2836 11.0508C36.1547 11.0087 36.0426 10.9266 35.9638 10.8163C35.8849 10.706 35.8434 10.5734 35.8453 10.4379L35.891 7.38278C35.9074 7.08447 35.8144 6.79044 35.6295 6.55574C35.4447 6.32105 35.1806 6.16179 34.8867 6.10778L33.5449 5.87341C33.2526 5.8229 32.9518 5.88025 32.6986 6.03479C32.4453 6.18933 32.2568 6.43056 32.168 6.71364L31.1719 9.62106C31.1267 9.75013 31.0413 9.8613 30.9282 9.93828C30.8152 10.0153 30.6804 10.054 30.5438 10.0488H29.4012C29.2656 10.0516 29.1325 10.0115 29.021 9.9343C28.9095 9.85708 28.8252 9.74664 28.7801 9.61872L27.7887 6.72771C27.7015 6.44255 27.5133 6.19897 27.2594 6.04258C27.0055 5.88619 26.7033 5.82771 26.4094 5.8781L25.0653 6.11247C24.7733 6.16605 24.5107 6.32375 24.3262 6.55629C24.1417 6.78884 24.0479 7.08043 24.0621 7.37692L24.109 10.4425C24.1099 10.5801 24.0664 10.7144 23.9849 10.8252C23.9034 10.9361 23.7883 11.0176 23.6567 11.0578C23.3883 11.1621 22.8059 11.3847 22.541 11.4832C22.3067 11.5675 22.0512 11.475 21.8449 11.2371L19.9395 8.89333C19.7646 8.65223 19.5069 8.48428 19.2157 8.42176C18.9245 8.35924 18.6205 8.40658 18.3621 8.55466L17.1832 9.23786C16.9231 9.38716 16.7275 9.62744 16.634 9.91241C16.5405 10.1974 16.5558 10.5069 16.677 10.7812L17.761 13.6336C17.8082 13.7608 17.8145 13.8997 17.7787 14.0306C17.743 14.1616 17.6671 14.2781 17.5617 14.3636C17.277 14.598 16.9852 14.8324 16.6946 15.0925C16.5948 15.1828 16.4687 15.2388 16.3348 15.2523C16.2009 15.2658 16.0662 15.2361 15.9504 15.1675L13.3594 13.5633C13.1106 13.4014 12.8113 13.3359 12.5176 13.3791C12.224 13.4222 11.9562 13.5711 11.7645 13.7976L10.8985 14.8394C10.7061 15.0663 10.6042 15.3561 10.6122 15.6534C10.6202 15.9507 10.7375 16.2346 10.9418 16.4508L12.9434 18.75C13.0322 18.8536 13.0853 18.983 13.0948 19.1192C13.1043 19.2553 13.0697 19.3909 12.9961 19.5058C12.7957 19.8246 12.6047 20.1597 12.4313 20.4949C12.3664 20.6155 12.265 20.7124 12.1416 20.7717C12.0183 20.8311 11.8792 20.8499 11.7446 20.8254L8.7551 20.2476C8.46566 20.1778 8.16063 20.217 7.89823 20.3577C7.63583 20.4984 7.43442 20.7308 7.33244 21.0105L6.86369 22.2855C6.76008 22.5647 6.76251 22.8722 6.8705 23.1498C6.97849 23.4273 7.18456 23.6556 7.44963 23.7914L10.1192 25.2738C10.2392 25.3401 10.3344 25.4436 10.3905 25.5687C10.4465 25.6939 10.4603 25.8339 10.4297 25.9675L10.4016 26.1164C10.3406 26.4433 10.2844 26.7527 10.2305 27.082C10.2119 27.2162 10.1513 27.341 10.0574 27.4387C9.96352 27.5363 9.84117 27.6018 9.70783 27.6258L6.69729 28.1121C6.40287 28.1482 6.13168 28.2903 5.93436 28.5118C5.73704 28.7333 5.62708 29.019 5.62502 29.3156V30.6726C5.6233 30.9704 5.73213 31.2582 5.93044 31.4803C6.12874 31.7024 6.40241 31.8431 6.69846 31.875L9.70783 32.3601C9.84306 32.3821 9.96753 32.4473 10.0626 32.546C10.1577 32.6446 10.2182 32.7714 10.2352 32.9074C10.2926 33.2777 10.3524 33.6597 10.4344 34.023C10.4608 34.1552 10.4453 34.2922 10.3901 34.4151C10.3348 34.5381 10.2426 34.6406 10.1262 34.7086L7.45783 36.1933C7.19276 36.3285 6.98659 36.5563 6.87856 36.8335C6.77052 37.1107 6.76815 37.418 6.87189 37.6968L7.34064 38.9742C7.44239 39.2538 7.64358 39.4862 7.90578 39.6269C8.16799 39.7677 8.47285 39.8069 8.76213 39.7371L11.7563 39.157C11.8902 39.1327 12.0283 39.1515 12.1509 39.2107C12.2734 39.2698 12.3741 39.3663 12.4383 39.4863C12.6141 39.8144 12.8028 40.1461 13.0008 40.473C13.0731 40.5894 13.107 40.7255 13.0977 40.8622C13.0885 40.9989 13.0365 41.1292 12.9492 41.2347L10.9571 43.5351C10.7523 43.7508 10.6334 44.0337 10.6226 44.3309C10.6118 44.628 10.7099 44.9189 10.8985 45.1488L11.7668 46.1929C11.9558 46.4223 12.2233 46.5733 12.5174 46.6167C12.8114 46.66 13.1111 46.5925 13.3582 46.4273L15.9797 44.8535C16.0959 44.7838 16.2315 44.7534 16.3663 44.7667C16.5012 44.78 16.6281 44.8363 16.7285 44.9273C17.0192 45.1816 17.3145 45.4265 17.5922 45.6527C17.6987 45.7369 17.7757 45.8527 17.8122 45.9835C17.8486 46.1143 17.8426 46.2533 17.7949 46.3804L16.7086 49.2398C16.5904 49.5126 16.5766 49.8194 16.6697 50.1017C16.7628 50.3841 16.9564 50.6224 17.2137 50.7715L18.3985 51.4558C18.6558 51.6044 18.9589 51.6529 19.2497 51.5919C19.5405 51.5309 19.7987 51.3648 19.9746 51.1254L21.9141 48.7406C22.0781 48.5379 22.336 48.4476 22.527 48.525C22.9348 48.6937 23.2078 48.7886 23.6918 48.9504C23.8207 48.9925 23.9329 49.0746 24.0119 49.1849C24.0909 49.2951 24.1327 49.4276 24.1313 49.5633L24.0844 52.616C24.0686 52.9142 24.1617 53.208 24.3465 53.4426C24.5313 53.6771 24.7951 53.8365 25.0887 53.891L26.4305 54.1254C26.7229 54.1764 27.0239 54.1193 27.2773 53.9646C27.5306 53.81 27.7191 53.5685 27.8074 53.2851L28.8035 50.3824C28.8486 50.2532 28.934 50.1419 29.0471 50.0649C29.1601 49.9879 29.295 49.9493 29.4317 49.9547H30.5742C30.7099 49.9517 30.843 49.9917 30.9546 50.0689C31.0661 50.1462 31.1504 50.2567 31.1953 50.3847L32.1879 53.2758C32.2648 53.5267 32.4201 53.7465 32.631 53.9027C32.8419 54.059 33.0973 54.1436 33.3598 54.1441C33.4297 54.1443 33.4996 54.138 33.5684 54.1254L34.9125 53.891C35.2045 53.8374 35.4671 53.6797 35.6516 53.4472C35.8361 53.2146 35.9299 52.923 35.9156 52.6265L35.8688 49.5609C35.8679 49.4258 35.91 49.294 35.989 49.1844C36.068 49.0749 36.1798 48.9933 36.3082 48.9515C36.7582 48.8004 37.0746 48.6785 37.3524 48.5707L37.4227 48.5437C37.786 48.4183 37.9617 48.5707 38.0637 48.6972L40.0266 51.1148C40.2025 51.354 40.4604 51.5199 40.751 51.5808C41.0415 51.6418 41.3444 51.5935 41.6016 51.4453L42.7817 50.7621C43.0398 50.613 43.234 50.374 43.3271 50.0909C43.4203 49.8077 43.4059 49.5002 43.2867 49.2269L42.2039 46.3746C42.1562 46.2475 42.1496 46.1086 42.1851 45.9776C42.2207 45.8465 42.2965 45.73 42.402 45.6445C42.6867 45.4101 42.9785 45.1758 43.2692 44.9156C43.3696 44.8251 43.4964 44.7691 43.631 44.756C43.7656 44.743 43.9008 44.7734 44.0168 44.8429L46.6406 46.4132C46.8894 46.5753 47.1887 46.641 47.4824 46.5978C47.7762 46.5546 48.044 46.4057 48.2356 46.1789L49.1028 45.1359C49.2951 44.9091 49.3971 44.6193 49.3891 44.322C49.3811 44.0246 49.2637 43.7407 49.0594 43.5246L47.0602 41.2195C46.9714 41.1159 46.9183 40.9864 46.9088 40.8503C46.8993 40.7142 46.9339 40.5786 47.0074 40.4636C47.2078 40.1461 47.3988 39.8109 47.5723 39.4746C47.6374 39.3543 47.7389 39.2576 47.8622 39.1982C47.9855 39.1389 48.1243 39.12 48.259 39.1441L51.2449 39.7265C51.5344 39.7964 51.8394 39.7572 52.1018 39.6165C52.3642 39.4758 52.5656 39.2434 52.6676 38.9636L53.1305 37.6886C53.234 37.4096 53.2316 37.1023 53.1236 36.8249C53.0156 36.5476 52.8095 36.3195 52.5446 36.184L49.8727 34.6992C49.7543 34.6323 49.6606 34.529 49.6055 34.4047C49.5505 34.2804 49.5369 34.1416 49.5668 34.009L49.5949 33.8601C49.6559 33.5332 49.7121 33.2238 49.766 32.8945C49.7847 32.7603 49.8453 32.6355 49.9391 32.5378C50.033 32.4402 50.1554 32.3747 50.2887 32.3508L53.2992 31.8656C53.5944 31.83 53.8664 31.688 54.0645 31.4663C54.2625 31.2445 54.3729 30.9582 54.375 30.6609V29.2886ZM21.2754 40.3043C21.1294 40.5582 20.9252 40.7739 20.6796 40.9335C20.434 41.0932 20.154 41.1923 19.8627 41.2227C19.5713 41.2532 19.2769 41.214 19.0036 41.1086C18.7304 41.0031 18.486 40.8343 18.2906 40.616C15.6506 37.6969 14.1929 33.8988 14.202 29.9629C14.2111 26.027 15.6863 22.2358 18.3399 19.3289C18.5362 19.1107 18.7816 18.9423 19.0559 18.8375C19.3301 18.7328 19.6253 18.6947 19.9171 18.7264C20.2089 18.7581 20.489 18.8587 20.7344 19.0199C20.9797 19.181 21.1832 19.3982 21.3281 19.6535L26.6778 29.0695C26.8384 29.3503 26.9229 29.6682 26.9229 29.9918C26.9229 30.3153 26.8384 30.6332 26.6778 30.914L21.2754 40.3043ZM30 45.8332C28.8848 45.8335 27.7728 45.7156 26.6824 45.4816C26.3984 45.4182 26.1333 45.2887 25.9086 45.1036C25.684 44.9186 25.506 44.6833 25.3893 44.4167C25.2725 44.1501 25.2202 43.8597 25.2366 43.5691C25.253 43.2785 25.3376 42.9959 25.4836 42.7441L30.8742 33.3691C31.0364 33.0866 31.2702 32.8519 31.5521 32.6887C31.834 32.5256 32.154 32.4397 32.4797 32.4398H43.2774C43.5682 32.4394 43.8551 32.5074 44.1147 32.6385C44.3744 32.7696 44.5995 32.96 44.7718 33.1943C44.9441 33.4286 45.0589 33.7002 45.1066 33.9871C45.1544 34.274 45.134 34.5682 45.0469 34.8457C42.9973 41.2113 37.0313 45.8332 30 45.8332ZM30.8801 26.6261L25.5469 17.2347C25.4024 16.9825 25.3192 16.6999 25.3041 16.4096C25.289 16.1193 25.3425 15.8296 25.4601 15.5638C25.5777 15.298 25.7562 15.0636 25.9812 14.8795C26.2061 14.6954 26.4713 14.5669 26.7551 14.5043C27.8221 14.2794 28.9096 14.1663 30 14.1668C37.0313 14.1668 42.9973 18.7886 45.0434 25.1578C45.1305 25.4353 45.1509 25.7294 45.1031 26.0163C45.0553 26.3032 44.9406 26.5748 44.7683 26.8091C44.596 27.0434 44.3709 27.2339 44.1112 27.3649C43.8516 27.496 43.5647 27.5641 43.2738 27.5636H32.4926C32.1649 27.5643 31.8428 27.4778 31.5595 27.3131C31.2762 27.1484 31.0417 26.9113 30.8801 26.6261Z" fill="white"/>
</svg>
