<svg width="128" height="128" viewBox="0 0 128 128" fill="none" xmlns="http://www.w3.org/2000/svg">
<path d="M18.282 94.277C17.132 94.277 16.189 93.955 15.453 93.311C14.763 92.713 14.418 92.046 14.418 91.31C14.418 90.482 14.533 89.861 14.763 89.447C15.039 88.987 15.614 88.665 16.488 88.481C18.65 87.975 20.881 87.377 23.181 86.687C25.527 85.951 27.712 85.192 29.736 84.41C31.76 83.582 33.393 82.777 34.635 81.995C35.923 81.213 36.567 80.523 36.567 79.925C36.567 79.373 36.061 78.844 35.049 78.338C34.037 77.786 32.749 77.188 31.185 76.544C29.621 75.9 27.942 75.187 26.148 74.405C24.354 73.623 22.675 72.726 21.111 71.714C19.547 70.702 18.259 69.552 17.247 68.264C16.235 66.93 15.729 65.412 15.729 63.71C15.729 61.042 16.373 58.558 17.661 56.258C18.995 53.912 20.72 51.75 22.836 49.772C24.952 47.794 27.275 45.977 29.805 44.321C32.381 42.619 34.911 41.124 37.395 39.836C39.925 38.502 42.179 37.329 44.157 36.317C44.801 35.949 45.422 35.696 46.02 35.558C46.618 35.42 47.147 35.351 47.607 35.351C48.941 35.351 49.907 35.65 50.505 36.248C51.103 36.846 51.402 37.536 51.402 38.318C51.402 38.962 51.057 39.721 50.367 40.595C49.677 41.423 48.688 42.159 47.4 42.803C46.112 43.447 44.571 43.769 42.777 43.769H42.225C40.661 44.597 38.959 45.586 37.119 46.736C35.279 47.886 33.462 49.151 31.668 50.531C29.874 51.911 28.218 53.337 26.7 54.809C25.228 56.235 24.032 57.615 23.112 58.949C22.238 60.283 21.801 61.502 21.801 62.606C21.801 63.94 22.307 65.136 23.319 66.194C24.331 67.252 25.619 68.195 27.183 69.023C28.793 69.851 30.472 70.656 32.22 71.438C34.014 72.22 35.693 73.025 37.257 73.853C38.867 74.635 40.178 75.509 41.19 76.475C42.202 77.395 42.708 78.476 42.708 79.718C42.708 81.144 42.202 82.501 41.19 83.789C40.224 85.077 38.936 86.273 37.326 87.377C35.716 88.435 33.945 89.401 32.013 90.275C30.127 91.103 28.264 91.816 26.424 92.414C24.584 93.012 22.928 93.472 21.456 93.794C20.03 94.116 18.972 94.277 18.282 94.277Z" fill="#CCCCCC"/>
<rect x="54" y="34" width="60" height="60" rx="20" fill="#9C9797"/>
<path d="M87.6203 75.504C87.3216 75.504 87.0443 75.4613 86.7883 75.376C85.9776 75.2053 85.4016 74.7147 85.0603 73.904C84.8043 73.1787 84.8683 72.368 85.2523 71.472C85.6789 70.576 86.2336 69.5733 86.9163 68.464C87.1723 68.08 87.4069 67.696 87.6203 67.312C87.8763 66.8853 88.0896 66.5013 88.2603 66.16C88.3456 66.032 88.4096 65.9253 88.4523 65.84C88.4949 65.712 88.5376 65.6053 88.5803 65.52C87.3003 65.3067 85.8069 65.264 84.1003 65.392C82.4363 65.4773 80.5589 65.7973 78.4683 66.352C76.6336 66.8213 74.6496 67.44 72.5163 68.208C70.4256 68.9333 68.2069 69.808 65.8603 70.832C65.3909 71.0027 64.9216 71.0027 64.4522 70.832C63.9829 70.6613 63.6416 70.3413 63.4282 69.872C63.1722 69.4027 63.1509 68.912 63.3642 68.4C63.5776 67.8453 63.9189 67.4827 64.3882 67.312C66.7776 66.2453 69.0603 65.328 71.2363 64.56C73.4549 63.7493 75.5456 63.1093 77.5083 62.64C82.7563 61.3173 87.0443 61.104 90.3723 62C91.3536 62.256 92.0363 62.8533 92.4203 63.792C92.8043 64.7307 92.7189 65.776 92.1643 66.928C91.6096 68.08 90.9483 69.2747 90.1803 70.512C90.1376 70.5973 90.0736 70.704 89.9883 70.832C89.9029 70.96 89.8176 71.1093 89.7323 71.28C90.7136 71.0667 92.1643 70.64 94.0843 70C96.0043 69.36 98.6496 68.4213 102.02 67.184C102.49 67.0133 102.959 67.056 103.428 67.312C103.94 67.5253 104.282 67.888 104.452 68.4C104.666 68.8693 104.666 69.36 104.452 69.872C104.239 70.3413 103.855 70.6827 103.3 70.896C101.338 71.5787 99.5456 72.1973 97.9243 72.752C96.3029 73.3067 94.8523 73.776 93.5723 74.16C91.8656 74.672 90.5643 75.0347 89.6683 75.248C88.7723 75.4187 88.0896 75.504 87.6203 75.504Z" fill="#EEEEEE"/>
</svg>
