<svg width="64" height="64" viewBox="0 0 64 64" fill="none" xmlns="http://www.w3.org/2000/svg">
<g clip-path="url(#clip0_3_10)">
<path d="M32 12V7M32 57V52M52 32H57M7 32H12M32 14C28.4399 14 24.9598 15.0557 21.9997 17.0335C19.0397 19.0114 16.7325 21.8226 15.3702 25.1117C14.0078 28.4008 13.6513 32.02 14.3459 35.5116C15.0404 39.0033 16.7547 42.2106 19.2721 44.7279C21.7894 47.2453 24.9967 48.9596 28.4884 49.6541C31.98 50.3487 35.5992 49.9922 38.8883 48.6298C42.1774 47.2675 44.9886 44.9603 46.9665 42.0003C48.9443 39.0402 50 35.5601 50 32C50 27.2261 48.1036 22.6477 44.7279 19.2721C41.3523 15.8964 36.7739 14 32 14Z" stroke="white" stroke-width="6" stroke-linecap="round" stroke-linejoin="round"/>
</g>
<defs>
<clipPath id="clip0_3_10">
<rect width="64" height="64" fill="white"/>
</clipPath>
</defs>
</svg>
