<svg width="512" height="512" viewBox="0 0 512 512" fill="none" xmlns="http://www.w3.org/2000/svg">
<path d="M112.91 128C81.8619 162.676 64.479 207.458 64 254C62.82 360.35 149.65 447.8 256 448C362.2 448.2 448 362.17 448 256C448 151.46 364.45 66.39 260.5 64C259.915 63.9812 259.332 64.0804 258.786 64.2917C258.24 64.503 257.742 64.8221 257.322 65.2299C256.903 65.6377 256.569 66.1259 256.342 66.6654C256.115 67.2049 255.998 67.7846 256 68.37V152" stroke="#FFFEFE" stroke-width="32" stroke-linecap="round" stroke-linejoin="round"/>
<path d="M233.38 278.63L154.38 165.63C153.287 164.064 152.78 162.164 152.948 160.262C153.116 158.36 153.947 156.578 155.298 155.228C156.648 153.877 158.43 153.046 160.332 152.878C162.234 152.71 164.134 153.217 165.7 154.31L278.7 233.31C285.631 238.302 290.318 245.822 291.748 254.243C293.177 262.664 291.234 271.309 286.339 278.309C281.443 285.308 273.989 290.099 265.589 291.645C257.188 293.191 248.517 291.368 241.45 286.57C238.325 284.405 235.596 281.719 233.38 278.63Z" fill="white"/>
</svg>
